<svg xmlns="http://www.w3.org/2000/svg" width="40" height="40" viewBox="0 0 40 40"><g id="icon" transform="translate(-350 -1026)"><rect id="bg" width="40" height="40" rx="6" transform="translate(350 1026)" fill="#f8faff"></rect><path id="settings" d="M18.17,15.878l2.118.733a13.582,13.582,0,0,0,.652,1.629L19.962,20.2a.866.866,0,0,0,.163.978L22.651,23.7a.866.866,0,0,0,.978.163l1.955-.978a9.709,9.709,0,0,0,1.629.652l.733,2.118a.782.782,0,0,0,.733.57h3.584a.981.981,0,0,0,.815-.57l.733-2.118a13.583,13.583,0,0,0,1.629-.652l1.955.978a.866.866,0,0,0,.978-.163L40.9,21.174a.866.866,0,0,0,.163-.978l-.978-1.955a9.71,9.71,0,0,0,.652-1.629l2.118-.733a.809.809,0,0,0,.57-.815V11.479a.981.981,0,0,0-.57-.815l-2.118-.57a9.71,9.71,0,0,0-.652-1.629l.978-1.955a.888.888,0,0,0-.163-.978L38.292,2.925a.866.866,0,0,0-.978-.163l-1.955.978a9.709,9.709,0,0,0-1.629-.652L33,.97A.809.809,0,0,0,32.182.4H28.6a.782.782,0,0,0-.733.57l-.733,2.118A13.582,13.582,0,0,0,25.5,3.74l-1.874-.9a.866.866,0,0,0-.978.163L20.125,5.532a.866.866,0,0,0-.163.978l.978,1.955a9.71,9.71,0,0,0-.652,1.629l-2.118.733a.809.809,0,0,0-.57.815v3.584A.912.912,0,0,0,18.17,15.878Z" transform="translate(339.488 1032.688)" fill="#3371ed"></path><path id="play" d="M5.2,1.067a1,1,0,0,1,1.6,0l4,5.333A1,1,0,0,1,10,8H2a1,1,0,0,1-.8-1.6Z" transform="translate(375.55 1040) rotate(90)" fill="#fff"></path></g></svg>