<svg xmlns="http://www.w3.org/2000/svg" width="40" height="40" viewBox="0 0 40 40"><g id="icon" transform="translate(-350 -1026)"><rect id="bg" width="40" height="40" rx="6" transform="translate(350 1026)" fill="#f8faff"></rect><g id="icon-2" data-name="icon" transform="translate(-169.518 -292.287)"><path id="Path_4890" data-name="Path 4890" d="M-2352.028,1328.551l1.324.582.872,1.594v6.487l-.7.673-1.919.251-2.3-.251v-7.31l.875-1.268.872-.758Z" transform="translate(2900.665 -1.124)" fill="#3371ed"></path><path id="Path_4888" data-name="Path 4888" d="M-2400.021,1328.551l-1.22,1.094-.512,1.688v18.06l-1.005.341h-15.724l-1.012-.765v-19.027l1.012-1.391Z" transform="translate(2947.591 -1.124)" fill="#3371ed"></path><g id="noun-policy-5740034" transform="translate(527.942 1327)"><path id="Path_4887" data-name="Path 4887" d="M27.34,3H9.253A2.313,2.313,0,0,0,6.942,5.311V23.967a1.381,1.381,0,0,0,1.379,1.379H23.959a1.381,1.381,0,0,0,1.379-1.379v-10.7h3.377a1.38,1.38,0,0,0,1.379-1.379V6.036A2.91,2.91,0,0,0,27.34,3ZM24.586,23.967a.627.627,0,0,1-.627.627H8.321a.627.627,0,0,1-.627-.627V5.311A1.56,1.56,0,0,1,9.252,3.752H25.528a3.168,3.168,0,0,0-.943,2.284Zm4.756-12.082a.627.627,0,0,1-.627.627H25.338V6.036a2.159,2.159,0,0,1,2-2.284,2.16,2.16,0,0,1,2,2.284ZM23.131,25.2a.376.376,0,0,1-.376.376H9.525a.376.376,0,1,1,0-.752H22.755A.376.376,0,0,1,23.131,25.2Z" transform="translate(-6.942 -3)" fill="#f8faff"></path><path id="Path_6795" data-name="Path 6795" d="M6.341,35.232h10.3" transform="translate(-2.296 -21.896)" fill="none" stroke="#f8faff" stroke-linecap="round" stroke-width="1"></path><path id="Path_6796" data-name="Path 6796" d="M6.341,35.232h10.3" transform="translate(-2.296 -19.151)" fill="none" stroke="#f8faff" stroke-linecap="round" stroke-width="1"></path><path id="Path_6797" data-name="Path 6797" d="M6.341,35.232h10.3" transform="translate(-2.296 -16.406)" fill="none" stroke="#f8faff" stroke-linecap="round" stroke-width="1"></path></g><path id="Path_6966" data-name="Path 6966" d="M533.9,1334.671l2.109,2.109,4.777-4.777" fill="none" stroke="#f8faff" stroke-linecap="round" stroke-linejoin="round" stroke-width="1"></path></g></g></svg>