<svg xmlns="http://www.w3.org/2000/svg" width="40" height="40" viewBox="0 0 40 40"><g id="icon" transform="translate(-350 -1026)"><rect id="bg" width="40" height="40" rx="6" transform="translate(350 1026)" fill="#f8faff"></rect><g id="icon-2" data-name="icon" transform="translate(360.652 1034.657)"><path id="Path_4884" data-name="Path 4884" d="M274.137,195.4l1.177.515a.562.562,0,0,0,.538,0l1.345-.584a13.1,13.1,0,0,0,7.9-12.118v-6.66a.726.726,0,0,0-.37-.618l-8.776-2.56a.7.7,0,0,0-.639,0l-8.574,2.594a.724.724,0,0,0-.336.618v6.8a13.143,13.143,0,0,0,7.734,12.015Z" transform="translate(-266.403 -173.299)" fill="#3371ed"></path><path id="Path_6831" data-name="Path 6831" d="M-12748.986,956.841l3.372,3.372,5.7-5.7" transform="translate(12754.033 -946.022)" fill="none" stroke="#fff" stroke-width="1"></path></g></g></svg>